<svg width="52" height="58" viewBox="0 0 52 58" fill="none" xmlns="http://www.w3.org/2000/svg">
<path d="M26 8.24417C38.6771 8.24417 49.0806 17.7192 50.3662 29.833C50.4547 30.667 50.5 31.5141 50.5 32.3721C50.5 45.6773 39.5514 56.5 26 56.5C13.3229 56.5 2.91945 47.025 1.63379 34.9112C1.54529 34.0772 1.5 33.2301 1.5 32.3721C1.5 31.5141 1.54529 30.667 1.63379 29.833C2.91945 17.7192 13.3229 8.24417 26 8.24417Z" fill="#F3F2E9" stroke="url(#paint0_linear_540_3428)" stroke-width="3"/>
<path d="M23.9468 34.2209C26.3225 34.2209 28.2367 36.1173 28.2368 38.4416C28.2368 40.766 26.3226 42.6623 23.9468 42.6623C21.5711 42.6621 19.6577 40.7659 19.6577 38.4416C19.6578 36.1175 21.5712 34.2211 23.9468 34.2209Z" fill="#434C92" stroke="#434C92"/>
<line x1="27.8682" y1="21.5814" x2="27.8682" y2="39.1163" stroke="#434C92"/>
<line x1="33.5195" y1="23.0814" x2="28.0458" y2="23.0814" stroke="#434C92" stroke-width="3"/>
<defs>
<linearGradient id="paint0_linear_540_3428" x1="26" y1="6.74417" x2="26" y2="58" gradientUnits="userSpaceOnUse">
<stop stop-color="#7B86C6"/>
<stop offset="1" stop-color="#405099"/>
</linearGradient>
</defs>
</svg>
